#!OML:ASF F:\VICON\USERDATA\INSTALL\rory3\rory3.ASF
:FULLY-SPECIFIED
:DEGREES
640
root 3.98777 16.5293 0.319284 9.42341 2.8565 3.81726
lowerback -4.64631 4.20195 0.798409
upperback 0.300227 5.69116 -3.86684
thorax 3.38437 2.89223 -3.99927
lowerneck 1.93256 6.84587 6.75193
upperneck 57.8419 8.04759 8.01293
head 26.426 5.40625 5.26055
rclavicle 1.9133e-014 -4.37326e-014
rhumerus -41.5127 -8.93834 -85.3663
rradius 57.3751
rwrist -44.7391
rhand -4.90338 -48.9013
rfingers 7.12502
rthumb 20.8862 -77.7969
lclavicle 1.9133e-014 -4.37326e-014
lhumerus -22.1328 -5.68363 85.1667
lradius 40.9498
lwrist 74.6614
lhand -41.2303 -16.8752
lfingers 7.12502
lthumb -14.1536 12.6227
rfemur -51.5063 8.32353 8.52113
rtibia 76.745
rfoot 8.35155 5.92618
rtoes -36.6817
lfemur -28.5583 -4.32558 -32.9599
ltibia 44.899
lfoot -22.9905 12.0768
ltoes 8.43373
641
root 3.98252 16.53 0.318049 9.43726 2.89873 3.86506
lowerback -4.83831 4.21943 0.668731
upperback 0.437614 5.72702 -3.82147
thorax 3.61996 2.9097 -3.85699
lowerneck 1.82241 6.82851 6.75657
upperneck 57.8345 8.03345 7.97023
head 26.4801 5.39617 5.24539
rclavicle 2.43511e-015 -2.38542e-015
rhumerus -41.3708 -9.02322 -85.2687
rradius 57.471
rwrist -44.7527
rhand -5.22079 -45.9008
rfingers 7.12502
rthumb 20.5813 -74.8297
lclavicle 2.43511e-015 -2.38542e-015
lhumerus -21.8003 -5.62922 85.238
lradius 40.6059
lwrist 74.494
lhand -40.6957 -16.8871
lfingers 7.12502
lthumb -13.6384 12.646
rfemur -51.5273 8.32507 8.48802
rtibia 76.7568
rfoot 8.32084 5.859
rtoes -36.6618
lfemur -28.5929 -4.2914 -32.977
ltibia 44.9171
lfoot -23.0553 11.8645
ltoes 9.10879
642
root 3.97878 16.5334 0.320295 9.46143 2.98852 3.97266
lowerback -4.932 4.20461 0.559143
upperback 0.482747 5.71751 -3.84676
thorax 3.71061 2.90393 -3.81441
lowerneck 1.74545 6.83972 6.78342
upperneck 57.8213 8.02898 7.99965
head 26.5015 5.40124 5.26506
rclavicle -1.72446e-014 -4.37326e-015
rhumerus -41.3797 -9.17072 -85.2312
rradius 57.5574
rwrist -44.6875
rhand -4.5952 -48.8041
rfingers 7.12502
rthumb 21.1823 -77.6669
lclavicle -1.72446e-014 -4.37326e-015
lhumerus -21.7044 -5.6927 85.21
lradius 40.443
lwrist 74.5479
lhand -40.2441 -17.1523
lfingers 7.12502
lthumb -13.2031 12.4096
rfemur -51.4956 8.27037 8.37665
rtibia 76.7761
rfoot 8.25234 5.75885
rtoes -36.1472
lfemur -28.5838 -4.2879 -33.0644
ltibia 44.8993
lfoot -23.1239 11.7233
ltoes 9.28483
643
root 3.97348 16.5359 0.326666 9.45565 3.06621 3.99175
lowerback -5.01564 4.197 0.506609
upperback 0.499402 5.71185 -3.8352
thorax 3.76808 2.90014 -3.76687
lowerneck 1.70656 6.85247 6.67691
upperneck 57.8389 7.95565 8.2347
head 26.4991 5.36876 5.4228
rclavicle 2.9768e-014 5.1684e-015
rhumerus -41.4353 -9.2921 -85.1861
rradius 57.5265
rwrist -44.6323
rhand -4.07301 -50.597
rfingers 7.12502
rthumb 21.6839 -79.4027
lclavicle 2.9768e-014 5.1684e-015
lhumerus -21.739 -5.7615 85.1785
lradius 40.4519
lwrist 74.6668
lhand -40.2272 -17.1182
lfingers 7.12502
lthumb -13.1868 12.4447
rfemur -51.4311 8.25774 8.37432
rtibia 76.8188
rfoot 8.07573 5.88097
rtoes -36.7022
lfemur -28.538 -4.2555 -33.0497
ltibia 44.8885
lfoot -23.2315 11.531
ltoes 9.63321
644
root 3.96611 16.529 0.328107 9.41317 3.12445 4.0901
lowerback -4.98125 4.18764 0.357207
upperback 0.505129 5.70786 -3.83677
thorax 3.73976 2.89486 -3.6882
lowerneck 1.7633 6.84539 6.67498
upperneck 57.8634 7.88268 8.37619
head 26.4926 5.3544 5.49781
rclavicle -6.86304e-014 5.96354e-015
rhumerus -41.5038 -9.36366 -85.1338
rradius 57.4531
rwrist -44.6197
rhand -4.27581 -51.1315
rfingers 7.12502
rthumb 21.4891 -79.9595
lclavicle -6.86304e-014 5.96354e-015
lhumerus -21.6673 -5.73353 85.1866
lradius 40.2928
lwrist 74.645
lhand -40.9003 -17.0295
lfingers 7.12502
lthumb -13.8356 12.4903
rfemur -51.4046 8.23672 8.29087
rtibia 76.9215
rfoot 8.00607 6.06024
rtoes -37.0747
lfemur -28.4745 -4.1666 -33.1323
ltibia 44.9055
lfoot -23.2228 11.3963
ltoes 9.6387
645
root 3.96101 16.5193 0.326112 9.40358 3.23195 4.1872
lowerback -4.94441 4.16043 0.257291
upperback 0.511728 5.67734 -3.84587
thorax 3.71483 2.87763 -3.64742
lowerneck 1.89148 6.81332 6.79507
upperneck 57.7964 7.86404 8.2575
head 26.37 5.37567 5.36799
rclavicle 1.40093e-013 -6.57977e-014
rhumerus -41.5428 -9.4075 -85.0691
rradius 57.415
rwrist -44.5782
rhand -4.89255 -51.9526
rfingers 7.12502
rthumb 20.8966 -80.8471
lclavicle 1.40093e-013 -6.57977e-014
lhumerus -21.6163 -5.7321 85.2004
lradius 40.1333
lwrist 74.6001
lhand -41.371 -17.0151
lfingers 7.12502
lthumb -14.2891 12.4733
rfemur -51.4024 8.15759 8.20145
rtibia 77.0225
rfoot 7.98753 6.03395
rtoes -36.5451
lfemur -28.4749 -4.10972 -33.2219
ltibia 44.9413
lfoot -23.1597 11.2795
ltoes 9.4547
646
root 3.95805 16.513 0.327237 9.40254 3.29349 4.27085
lowerback -4.99822 4.15669 0.162675
upperback 0.564426 5.6805 -3.83536
thorax 3.78964 2.87768 -3.57767
lowerneck 1.93355 6.77923 6.85531
upperneck 57.6704 7.86193 8.09401
head 26.2002 5.38837 5.21846
rclavicle 8.44835e-014 -4.31363e-014
rhumerus -41.5455 -9.48392 -84.976
rradius 57.4559
rwrist -44.5129
rhand -5.15091 -52.3643
rfingers 7.12502
rthumb 20.6484 -81.286
lclavicle 8.44835e-014 -4.31363e-014
lhumerus -21.6112 -5.83654 85.2334
lradius 40.1494
lwrist 74.5707
lhand -41.1146 -16.9376
lfingers 7.12502
lthumb -14.0421 12.568
rfemur -51.3768 8.10965 8.11333
rtibia 77.08
rfoot 7.80903 5.92031
rtoes -36.2627
lfemur -28.4522 -4.07 -33.3059
ltibia 44.9502
lfoot -23.1566 11.1495
ltoes 9.4271
647
root 3.95548 16.5176 0.327329 9.356 3.31547 4.31533
lowerback -5.0165 4.16253 0.0949919
upperback 0.62955 5.69428 -3.81507
thorax 3.85971 2.8835 -3.5139
lowerneck 1.98321 6.78009 6.97346
upperneck 57.5737 7.89118 7.9729
head 26.0738 5.4252 5.09896
rclavicle -2.55438e-014 -1.88845e-014
rhumerus -41.5378 -9.56128 -84.9201
rradius 57.4688
rwrist -44.4719
rhand -5.28091 -50.4798
rfingers 7.12502
rthumb 20.5235 -79.415
lclavicle -2.55438e-014 -1.88845e-014
lhumerus -21.4807 -5.98646 85.2412
lradius 40.0389
lwrist 74.6531
lhand -41.1296 -17.1524
lfingers 7.12502
lthumb -14.0565 12.3523
rfemur -51.2654 8.13709 8.06535
rtibia 77.0336
rfoot 7.69952 5.81785
rtoes -35.8227
lfemur -28.3681 -4.06459 -33.3429
ltibia 44.8976
lfoot -23.1844 11.0978
ltoes 9.53733
648
root 3.95483 16.5295 0.33296 9.32675 3.36655 4.2415
lowerback -5.14332 4.17338 0.150943
upperback 0.610936 5.7059 -3.78341
thorax 3.91467 2.88985 -3.50238
lowerneck 2.22311 6.75721 7.2367
upperneck 57.5813 7.88362 7.85798
head 26.033 5.47852 4.96136
rclavicle 7.524e-014 -2.94201e-014
rhumerus -41.7253 -9.60172 -84.9117
rradius 57.4182
rwrist -44.5027
rhand -5.91744 -47.4397
rfingers 7.12502
rthumb 19.9117 -76.4396
lclavicle 7.524e-014 -2.94201e-014
lhumerus -21.4426 -6.06681 85.2285
lradius 39.787
lwrist 74.715
lhand -41.3778 -17.0876
lfingers 7.12502
lthumb -14.2957 12.4003
rfemur -51.0941 8.18317 8.1445
rtibia 76.9039
rfoot 7.66467 5.78312
rtoes -35.4429
lfemur -28.2591 -4.06081 -33.2654
ltibia 44.7894
lfoot -23.1538 11.1251
ltoes 9.42311
649
root 3.95263 16.5366 0.342473 9.31208 3.42386 4.23923
lowerback -5.31694 4.20547 0.0768232
upperback 0.530197 5.75275 -3.75605
thorax 3.92123 2.91 -3.41871
lowerneck 2.49485 6.67382 7.43551
upperneck 57.6327 7.76913 7.81399
head 26.025 5.48494 4.86941
rclavicle 1.3418e-015 0
rhumerus -42.1774 -9.66007 -84.862
rradius 57.4931
rwrist -44.5883
rhand -6.70576 -45.8303
rfingers 7.12502
rthumb 19.1538 -74.9072
lclavicle 1.3418e-015 0
lhumerus -21.6013 -6.13421 85.2784
lradius 39.5537
lwrist 74.5789
lhand -41.3727 -16.6451
lfingers 7.12502
lthumb -14.2908 12.8432
rfemur -50.9413 8.20335 8.15306
rtibia 76.8016
rfoot 7.62662 5.81674
rtoes -35.4656
lfemur -28.1086 -4.0957 -33.2606
ltibia 44.6431
lfoot -23.0954 11.1768
ltoes 9.30106
